<?xml version="1.0" encoding="UTF-8" standalone="no"?>
<!DOCTYPE svg PUBLIC "-//W3C//DTD SVG 1.1//EN" "http://www.w3.org/Graphics/SVG/1.1/DTD/svg11.dtd">
<svg version="1.1" xmlns="http://www.w3.org/2000/svg" xmlns:xlink="http://www.w3.org/1999/xlink" preserveAspectRatio="xMidYMid meet" viewBox="0 0 640 640" width="640" height="640"><defs><path d="M417.3 104.5C435.15 104.5 435.2 131.55 417.3 131.55C371.03 131.58 333.53 169.08 333.5 215.35C333.5 233.2 306.5 233.25 306.5 215.35C306.56 154.17 356.12 104.58 417.3 104.5Z" id="b3qxVncmMr"></path><path d="M311.05 187.35C317.11 188.09 322.62 183.78 323.36 177.72C323.47 176.82 323.46 175.9 323.35 175C322.75 170.33 321.85 165.7 320.65 161.15C316 169.34 312.42 178.1 310 187.2C310.21 187.23 310.84 187.32 311.05 187.35Z" id="c39y6hzCDk"></path><path d="M410 131.55C368.5 131.61 333.28 162.01 327.15 203.05C326.86 205.39 325.41 207.42 323.3 208.45C319.1 210.4 318.3 208.45 307.2 204.3C306.2 214.3 305.3 225.05 316.45 228.25C316.45 228.25 316.45 228.25 316.45 228.25C321.45 230.75 332.6 226.9 334.05 208.75C334.05 207.1 334.4 205.45 334.6 203.75C340.39 162.47 375.62 131.72 417.3 131.55C415.84 131.55 410.73 131.55 410 131.55Z" id="e2h5ZOOmSU"></path><path d="M307.65 187.4C313.7 188.17 319.24 183.89 320.01 177.83C320.13 176.89 320.12 175.94 320 175C313.98 125.24 274.76 86.02 225 80C218.95 79.23 213.41 83.51 212.64 89.57C212.52 90.51 212.53 91.46 212.65 92.4C218.67 142.16 257.89 181.38 307.65 187.4Z" id="bfBmjTsxc"></path><path d="M266.6 94.1C294.26 111.52 312.62 140.45 316.6 172.9C317.23 178.97 312.83 184.4 306.76 185.04C305.89 185.13 305.01 185.12 304.15 185C289.45 183.24 275.28 178.47 262.5 171C276.11 179.68 291.48 185.19 307.5 187.15C313.55 187.99 319.12 183.77 319.96 177.72C320.09 176.82 320.1 175.9 320 175C315.86 141.16 296.09 111.21 266.6 94.1Z" id="c7TVsZ1J9F"></path><path d="M330.5 553.1C388.5 578.85 527.2 538.8 527.2 352.8C527.2 199 395.95 182.4 327.95 210.95C322.85 213.1 317.1 213.1 312 210.95C244 182.4 112.75 199 112.75 352.8C112.8 538.8 251.45 578.85 309.45 553.1C316.16 550.15 323.79 550.15 330.5 553.1Z" id="kKTNdwQNU"></path><path d="M305 208.4C235.5 183.4 112.35 203.8 112.35 352.8C112.35 481.6 178.85 540.35 239 555.8C182.9 535.8 125 476.6 125 356.6C125 216.15 234.45 190.1 305 208.4Z" id="d1rab5sWnE"></path><path d="M335.45 555.05C338.58 556.14 341.76 557.05 345 557.75C341.99 556.33 338.76 555.41 335.45 555.05Z" id="dNLI5LJI"></path><path d="M514.3 340C514.3 521.95 381.6 564.25 321.5 541.9C312.17 538.46 301.93 538.46 292.6 541.9C259.95 554 205.9 546.9 163.3 508.9C208.8 559.85 273.75 568.9 309.05 553.15C315.8 550.18 323.5 550.18 330.25 553.15C388.2 578.95 527 538.95 527 352.85C527.2 293.75 507.85 255 480 231.15C500.7 255.3 514.3 290.55 514.3 340Z" id="bthENPt0W"></path><path d="M202.75 464.3C202.9 464.35 172.4 312.15 262.75 240C212.75 235.45 126.65 328.2 202.75 464.3Z" id="d11T5Aon8e"></path><path d="M501.6 432.32C509.81 428.01 513.92 426.57 524.87 426.57C557.71 426.57 583.71 453.88 583.71 488.37C583.71 522.85 557.71 550.16 524.87 550.16C492.02 550.16 466.02 522.85 466.02 488.37C466.02 482.62 466.02 458.19 470.13 453.88C458.64 447.55 366.68 396.97 355.18 390.64C346.97 412.2 325.08 430.88 300.44 430.88C267.6 430.88 241.6 403.58 241.6 369.09C241.6 334.6 267.6 307.3 300.44 307.3C312.76 307.3 326.44 314.48 331.92 317.35C337.39 320.23 352.44 337.47 352.44 337.47C363.8 328.85 454.67 259.87 466.02 251.25C466.02 216.76 492.02 189.46 524.87 189.46C557.71 189.46 583.71 216.76 583.71 251.25C583.71 285.74 557.71 313.04 524.87 313.04C508.45 313.04 493.39 305.86 483.81 294.36" id="b8ykrG6H2"></path></defs><g><g><g><use xlink:href="#b3qxVncmMr" opacity="1" fill="#6d5c49" fill-opacity="1"></use><g><use xlink:href="#b3qxVncmMr" opacity="1" fill-opacity="0" stroke="#000000" stroke-width="1" stroke-opacity="0"></use></g></g><g><use xlink:href="#c39y6hzCDk" opacity="1" fill="#594e43" fill-opacity="1"></use><g><use xlink:href="#c39y6hzCDk" opacity="1" fill-opacity="0" stroke="#000000" stroke-width="1" stroke-opacity="0"></use></g></g><g><use xlink:href="#e2h5ZOOmSU" opacity="1" fill="#594e43" fill-opacity="1"></use><g><use xlink:href="#e2h5ZOOmSU" opacity="1" fill-opacity="0" stroke="#000000" stroke-width="1" stroke-opacity="0"></use></g></g><g><use xlink:href="#bfBmjTsxc" opacity="1" fill="#99cc33" fill-opacity="1"></use><g><use xlink:href="#bfBmjTsxc" opacity="1" fill-opacity="0" stroke="#000000" stroke-width="1" stroke-opacity="0"></use></g></g><g><use xlink:href="#c7TVsZ1J9F" opacity="1" fill="#80ab2b" fill-opacity="1"></use><g><use xlink:href="#c7TVsZ1J9F" opacity="1" fill-opacity="0" stroke="#000000" stroke-width="1" stroke-opacity="0"></use></g></g><g><use xlink:href="#kKTNdwQNU" opacity="1" fill="#d2423f" fill-opacity="1"></use><g><use xlink:href="#kKTNdwQNU" opacity="1" fill-opacity="0" stroke="#000000" stroke-width="1" stroke-opacity="0"></use></g></g><g><use xlink:href="#d1rab5sWnE" opacity="1" fill="#dd6966" fill-opacity="1"></use><g><use xlink:href="#d1rab5sWnE" opacity="1" fill-opacity="0" stroke="#000000" stroke-width="1" stroke-opacity="0"></use></g></g><g><use xlink:href="#dNLI5LJI" opacity="1" fill="#dd6966" fill-opacity="1"></use><g><use xlink:href="#dNLI5LJI" opacity="1" fill-opacity="0" stroke="#000000" stroke-width="1" stroke-opacity="0"></use></g></g><g><use xlink:href="#bthENPt0W" opacity="1" fill="#ba3b38" fill-opacity="1"></use><g><use xlink:href="#bthENPt0W" opacity="1" fill-opacity="0" stroke="#000000" stroke-width="1" stroke-opacity="0"></use></g></g><g><use xlink:href="#d11T5Aon8e" opacity="1" fill="#dd6966" fill-opacity="1"></use><g><use xlink:href="#d11T5Aon8e" opacity="1" fill-opacity="0" stroke="#000000" stroke-width="1" stroke-opacity="0"></use></g></g><g><use xlink:href="#b8ykrG6H2" opacity="1" fill="#000000" fill-opacity="0"></use><g><use xlink:href="#b8ykrG6H2" opacity="1" fill-opacity="0" stroke="#80ab2b" stroke-width="8" stroke-opacity="1"></use></g></g></g></g></svg>